<svg xmlns="http://www.w3.org/2000/svg" viewBox="0 0 500 500"><g id="freepik--background-complete--inject-3"><rect x="416.78" y="398.49" width="33.12" height="0.25" style="fill:#ebebeb"></rect><rect x="322.53" y="401.21" width="8.69" height="0.25" style="fill:#ebebeb"></rect><rect x="396.59" y="389.21" width="19.19" height="0.25" style="fill:#ebebeb"></rect><rect x="52.46" y="390.89" width="43.19" height="0.25" style="fill:#ebebeb"></rect><rect x="104.56" y="390.89" width="6.33" height="0.25" style="fill:#ebebeb"></rect><rect x="131.47" y="395.11" width="93.68" height="0.25" style="fill:#ebebeb"></rect><path d="M237,337.8H43.92a5.71,5.71,0,0,1-5.71-5.71V60.66A5.71,5.71,0,0,1,43.92,55H237a5.71,5.71,0,0,1,5.71,5.71V332.09A5.71,5.71,0,0,1,237,337.8ZM43.92,55.2a5.47,5.47,0,0,0-5.46,5.46V332.09a5.47,5.47,0,0,0,5.46,5.46H237a5.47,5.47,0,0,0,5.46-5.46V60.66A5.47,5.47,0,0,0,237,55.2Z" style="fill:#ebebeb"></path><path d="M453.31,337.8H260.21a5.72,5.72,0,0,1-5.71-5.71V60.66A5.72,5.72,0,0,1,260.21,55h193.1A5.71,5.71,0,0,1,459,60.66V332.09A5.71,5.71,0,0,1,453.31,337.8ZM260.21,55.2a5.47,5.47,0,0,0-5.46,5.46V332.09a5.47,5.47,0,0,0,5.46,5.46h193.1a5.47,5.47,0,0,0,5.46-5.46V60.66a5.47,5.47,0,0,0-5.46-5.46Z" style="fill:#ebebeb"></path><rect y="382.4" width="500" height="0.25" style="fill:#ebebeb"></rect><path d="M95.78,260.35h3v-35.9a15,15,0,0,1,14-15.16,14.75,14.75,0,0,1,15.47,14,.74.74,0,0,0,.73.71h1.54a.73.73,0,0,0,.73-.75,17.77,17.77,0,0,0-17.43-17c-9.93-.17-18,8.29-18,18.22Z" style="fill:#f0f0f0"></path><rect x="59.3" y="264.27" width="21.32" height="118.09" transform="translate(139.92 646.63) rotate(180)" style="fill:#e6e6e6"></rect><rect x="74.8" y="264.27" width="231" height="118.09" transform="translate(380.6 646.63) rotate(180)" style="fill:#f5f5f5"></rect><polygon points="74.8 288.86 305.8 288.86 305.8 290.86 249.05 290.86 249.05 382.36 247.05 382.36 247.05 290.86 191.84 290.86 191.84 382.36 189.84 382.36 189.84 290.86 134.64 290.86 134.64 382.36 132.64 382.36 132.64 290.86 74.8 290.86 74.8 288.86" style="fill:#e0e0e0"></polygon><path d="M254.8,341.36h0a2,2,0,0,0,2-2v-9a2,2,0,0,0-2-2h0a2,2,0,0,0-2,2v9A2,2,0,0,0,254.8,341.36Z" style="fill:#e6e6e6"></path><path d="M241.3,341.36h0a2,2,0,0,0,2-2v-9a2,2,0,0,0-2-2h0a2,2,0,0,0-2,2v9A2,2,0,0,0,241.3,341.36Z" style="fill:#e6e6e6"></path><path d="M140.39,341.36h0a2,2,0,0,0,2-2v-9a2,2,0,0,0-2-2h0a2,2,0,0,0-2,2v9A2,2,0,0,0,140.39,341.36Z" style="fill:#e6e6e6"></path><path d="M126.89,341.36h0a2,2,0,0,0,2-2v-9a2,2,0,0,0-2-2h0a2,2,0,0,0-2,2v9A2,2,0,0,0,126.89,341.36Z" style="fill:#e6e6e6"></path><rect x="54.3" y="261.68" width="26.5" height="5.17" transform="translate(135.1 528.54) rotate(180)" style="fill:#e0e0e0"></rect><rect x="72.8" y="261.68" width="238" height="5.17" transform="translate(383.6 528.54) rotate(180)" style="fill:#ebebeb"></rect><path d="M68.2,262.27h78.89a1.92,1.92,0,0,0,1.92-1.92h0a1.92,1.92,0,0,0-1.92-1.92H68.2a1.92,1.92,0,0,0-1.92,1.92h0A1.92,1.92,0,0,0,68.2,262.27Z" style="fill:#e6e6e6"></path><rect x="88.25" y="255.2" width="2.99" height="3.8" transform="translate(179.48 514.2) rotate(180)" style="fill:#e0e0e0"></rect><polygon points="86.96 256.15 92.52 256.15 91.44 249.5 88.04 249.5 86.96 256.15" style="fill:#f0f0f0"></polygon><rect x="103.37" y="255.2" width="2.99" height="3.8" transform="translate(209.73 514.2) rotate(180)" style="fill:#e0e0e0"></rect><polygon points="102.08 256.15 107.65 256.15 106.56 249.5 103.17 249.5 102.08 256.15" style="fill:#f0f0f0"></polygon><polygon points="169.49 191.68 191.99 191.68 173.89 89.02 151.39 89.02 169.49 191.68" style="fill:#fafafa"></polygon><polygon points="156.4 191.68 162.47 191.68 144.37 89.02 138.3 89.02 156.4 191.68" style="fill:#fafafa"></polygon><polygon points="90.59 193.46 96.83 193.46 78.22 87.96 71.99 87.96 90.59 193.46" style="fill:#fafafa"></polygon><polygon points="103.01 193.46 114.76 193.46 96.16 87.96 84.41 87.96 103.01 193.46" style="fill:#fafafa"></polygon><path d="M134.47,87.43H208v106H134.47Zm67.67,5.81H140.28v94.42h61.86Z" style="fill:#e6e6e6"></path><path d="M58.07,84.52H210.86V196.38H58.07Zm147,5.82H63.88V190.56H205.05Z" style="fill:#f5f5f5"></path><polygon points="326.97 191.68 304.47 191.68 322.57 89.02 345.07 89.02 326.97 191.68" style="fill:#fafafa"></polygon><polygon points="340.06 191.68 334 191.68 352.1 89.02 358.16 89.02 340.06 191.68" style="fill:#fafafa"></polygon><polygon points="405.87 193.46 399.63 193.46 418.24 87.96 424.47 87.96 405.87 193.46" style="fill:#fafafa"></polygon><polygon points="393.45 193.46 381.7 193.46 400.3 87.96 412.05 87.96 393.45 193.46" style="fill:#fafafa"></polygon><path d="M362,193.47H288.5v-106H362Zm-67.68-5.81h61.86V93.24H294.32Z" style="fill:#e6e6e6"></path><path d="M438.39,196.38H285.6V84.52H438.39Zm-147-5.82H432.58V90.34H291.41Z" style="fill:#f5f5f5"></path><circle cx="249.3" cy="100.14" r="20.45" transform="translate(119.45 335.34) rotate(-82.98)" style="fill:#e0e0e0"></circle><circle cx="248.12" cy="98.95" r="20.45" transform="translate(110.7 328.02) rotate(-80.78)" style="fill:#f0f0f0"></circle><circle cx="247.87" cy="98.95" r="16.41" style="fill:#fafafa"></circle><path d="M249.49,100.31a1.67,1.67,0,1,1-1.66-1.66A1.66,1.66,0,0,1,249.49,100.31Z" style="fill:#e0e0e0"></path><polygon points="247.64 100.93 240.58 94.28 241.26 93.55 247.66 99.57 259.12 89.44 259.79 90.19 247.64 100.93" style="fill:#e0e0e0"></polygon><rect x="390.41" y="311.61" width="42.25" height="6.5" transform="translate(823.08 629.71) rotate(180)" style="fill:#e0e0e0"></rect><path d="M389.16,315.36h46a0,0,0,0,1,0,0v63.73a3.27,3.27,0,0,1-3.27,3.27H392.44a3.27,3.27,0,0,1-3.27-3.27V315.36A0,0,0,0,1,389.16,315.36Z" transform="translate(824.33 697.71) rotate(180)" style="fill:#f0f0f0"></path><rect x="389.16" y="303.61" width="46" height="10" rx="3.61" transform="translate(824.33 617.21) rotate(180)" style="fill:#f0f0f0"></rect><polygon points="421.66 382.36 443.16 382.36 443.16 379.36 421.66 377.36 421.66 382.36" style="fill:#e0e0e0"></polygon></g><g id="freepik--Shadow--inject-3"><ellipse id="freepik--path--inject-3" cx="245.18" cy="412.39" rx="193.89" ry="11.32" style="fill:#f5f5f5"></ellipse></g><g id="freepik--Desk--inject-3"><path d="M221.51,233.56h3.77a0,0,0,0,1,0,0v11.76a1.87,1.87,0,0,1-1.87,1.87h0a1.87,1.87,0,0,1-1.87-1.87V233.56A0,0,0,0,1,221.51,233.56Z" transform="translate(531.19 354.12) rotate(153.18)" style="fill:#263238"></path><path d="M221.51,233.56h3.77a0,0,0,0,1,0,0v11.76a1.87,1.87,0,0,1-1.87,1.87h0a1.87,1.87,0,0,1-1.87-1.87V233.56A0,0,0,0,1,221.51,233.56Z" transform="translate(531.19 354.12) rotate(153.18)" style="fill:#fff;opacity:0.30000000000000004"></path><rect x="221.64" y="248.54" width="3.5" height="34.12" transform="translate(446.78 531.2) rotate(180)" style="fill:#263238"></rect><rect x="231.04" y="248.54" width="3.5" height="3.85" transform="translate(465.59 500.93) rotate(180)" style="fill:#263238"></rect><rect x="221.64" y="248.54" width="3.5" height="34.12" transform="translate(446.78 531.2) rotate(180)" style="opacity:0.2"></rect><rect x="231.04" y="248.54" width="3.5" height="3.85" transform="translate(465.59 500.93) rotate(180)" style="opacity:0.2"></rect><rect x="229.82" y="242.9" width="2.8" height="5.64" transform="translate(462.43 491.44) rotate(180)" style="fill:#263238"></rect><path d="M217.27,248.54h12.55V242.9l-11.14,2.39a1.8,1.8,0,0,0-1.41,1.75Z" style="fill:#263238"></path><path d="M217.27,248.54h12.55V242.9l-11.14,2.39a1.8,1.8,0,0,0-1.41,1.75Z" style="fill:#fff;opacity:0.2"></path><path d="M230.48,254.63l4-1.87a.19.19,0,0,0-.08-.37h-9.15a.19.19,0,0,0-.08.37l4,1.87A1.55,1.55,0,0,0,230.48,254.63Z" style="fill:#263238"></path><path d="M228,255.7v1.71a1.79,1.79,0,0,0,1.79,1.79h0a1.79,1.79,0,0,0,1.78-1.79V255.7a1.79,1.79,0,0,0-1.78-1.79h0A1.79,1.79,0,0,0,228,255.7Z" style="fill:#263238"></path><path d="M228,255.7v1.71a1.79,1.79,0,0,0,1.79,1.79h0a1.79,1.79,0,0,0,1.78-1.79V255.7a1.79,1.79,0,0,0-1.78-1.79h0A1.79,1.79,0,0,0,228,255.7Z" style="fill:#fff;opacity:0.6000000000000001"></path><path d="M231.59,255.68l.66,1.59a1.79,1.79,0,0,0,2.34,1h0a1.79,1.79,0,0,0,1-2.34l-.65-1.58a1.79,1.79,0,0,0-2.34-1h0A1.79,1.79,0,0,0,231.59,255.68Z" style="fill:#263238"></path><path d="M228,255.68l-.66,1.59a1.79,1.79,0,0,1-2.34,1h0a1.79,1.79,0,0,1-1-2.34l.65-1.58a1.79,1.79,0,0,1,2.34-1h0A1.78,1.78,0,0,1,228,255.68Z" style="fill:#263238"></path><g style="opacity:0.30000000000000004"><path d="M231.59,255.68l.66,1.59a1.79,1.79,0,0,0,2.34,1h0a1.79,1.79,0,0,0,1-2.34l-.65-1.58a1.79,1.79,0,0,0-2.34-1h0A1.79,1.79,0,0,0,231.59,255.68Z" style="fill:#fff"></path><path d="M228,255.68l-.66,1.59a1.79,1.79,0,0,1-2.34,1h0a1.79,1.79,0,0,1-1-2.34l.65-1.58a1.79,1.79,0,0,1,2.34-1h0A1.78,1.78,0,0,1,228,255.68Z" style="fill:#fff"></path></g><path d="M221.64,282.66H209.79a1.62,1.62,0,0,1-1.58-2l6.88-30.84a1.67,1.67,0,0,1,1.64-1.31H231v3.85h-9.4Z" style="fill:#263238"></path><path d="M221.64,282.66H209.79a1.62,1.62,0,0,1-1.58-2l6.88-30.84a1.67,1.67,0,0,1,1.64-1.31H231v3.85h-9.4Z" style="fill:#fff;opacity:0.30000000000000004"></path><rect x="227.91" y="266.14" width="14.21" height="2.77" transform="translate(470.03 535.05) rotate(180)" style="fill:#263238"></rect><rect x="213.71" y="266.14" width="14.21" height="2.77" transform="translate(441.62 535.05) rotate(180)" style="fill:#263238"></rect><rect x="227.91" y="266.14" width="14.21" height="2.77" transform="translate(470.03 535.05) rotate(180)" style="fill:#fff;opacity:0.7000000000000001"></rect><rect x="213.71" y="266.14" width="14.21" height="2.77" transform="translate(441.62 535.05) rotate(180)" style="fill:#fff;opacity:0.5"></rect><polygon points="179.42 290.37 179.42 415.95 176.16 415.95 173.26 296.47 169.42 296.47 169.42 290.37 179.42 290.37" style="fill:#263238"></polygon><polygon points="176.53 415.95 173.42 415.95 169.42 290.38 173.53 290.38 176.53 415.95" style="fill:#263238"></polygon><g style="opacity:0.30000000000000004"><polygon points="175.93 415.95 173.42 415.95 169.71 296.61 173.21 296.61 175.93 415.95" style="fill:#fff"></polygon></g><polygon points="179.42 290.37 179.42 415.95 176.16 415.95 173.26 296.47 169.42 296.47 169.42 290.37 179.42 290.37" style="fill:#fff;opacity:0.5"></polygon><polygon points="374.99 415.95 371.89 415.95 367.89 290.38 371.99 290.38 374.99 415.95" style="fill:#263238"></polygon><polygon points="374.99 415.95 371.89 415.95 367.89 290.38 371.99 290.38 374.99 415.95" style="fill:#fff;opacity:0.30000000000000004"></polygon><polygon points="324.89 290.38 324.89 415.95 328.18 415.95 332.04 296.47 371.73 296.47 374.63 415.95 377.89 415.95 377.89 290.38 324.89 290.38" style="fill:#263238"></polygon><polygon points="324.89 290.38 324.89 415.95 328.18 415.95 332.04 296.47 371.73 296.47 374.63 415.95 377.89 415.95 377.89 290.38 324.89 290.38" style="fill:#fff;opacity:0.5"></polygon><polygon points="324.89 415.95 321.78 415.95 320.78 290.38 324.89 290.38 324.89 415.95" style="fill:#263238"></polygon><polygon points="324.89 415.95 321.78 415.95 320.78 290.38 324.89 290.38 324.89 415.95" style="fill:#fff;opacity:0.30000000000000004"></polygon><polygon points="169.22 290.37 169.22 296.47 133.38 296.47 129.51 415.95 126.22 415.95 126.22 290.37 169.22 290.37" style="fill:#263238"></polygon><polygon points="169.22 290.37 169.22 296.47 133.38 296.47 129.51 415.95 126.22 415.95 126.22 290.37 169.22 290.37" style="fill:#fff;opacity:0.5"></polygon><polygon points="169.22 290.37 169.22 296.47 133.38 296.47 129.51 415.95 126.22 415.95 126.22 290.37 169.22 290.37" style="fill:none;opacity:0.30000000000000004"></polygon><polygon points="126.22 415.95 123.11 415.95 122.11 290.38 126.22 290.38 126.22 415.95" style="fill:#263238"></polygon><g style="opacity:0.30000000000000004"><polygon points="126.22 415.95 123.11 415.95 122.11 290.38 126.22 290.38 126.22 415.95" style="fill:#fff"></polygon></g><rect x="116.68" y="282.71" width="205.65" height="7.67" style="fill:#263238"></rect><rect x="116.68" y="282.71" width="205.65" height="7.67" style="fill:#fff;opacity:0.6000000000000001"></rect><rect x="317.55" y="282.71" width="65.78" height="7.67" style="fill:#263238"></rect><rect x="317.55" y="282.71" width="65.78" height="7.67" style="fill:#fff;opacity:0.8"></rect><path d="M160.91,244.42h-3.23a1.76,1.76,0,0,0-1.76,1.77v0a1.77,1.77,0,0,0,1,1.56v28.4a2,2,0,0,0,2,2h.8a2,2,0,0,0,2-2v-28.4a1.77,1.77,0,0,0,.95-1.56v0A1.76,1.76,0,0,0,160.91,244.42Z" style="fill:#263238"></path><path d="M160.91,244.42h-3.23a1.76,1.76,0,0,0-1.76,1.77v0a1.77,1.77,0,0,0,1,1.56v28.4a2,2,0,0,0,2,2h.8a2,2,0,0,0,2-2v-28.4a1.77,1.77,0,0,0,.95-1.56v0A1.76,1.76,0,0,0,160.91,244.42Z" style="fill:#fff;opacity:0.6000000000000001"></path><path d="M156.6,244.81a5.69,5.69,0,0,0,2.7.45,5.75,5.75,0,0,0,2.7-.45,1.75,1.75,0,0,0-1.09-.39h-3.23A1.72,1.72,0,0,0,156.6,244.81Z" style="fill:#263238"></path><path d="M159.3,261.1c-.84,0-1.51-.21-1.53-.48v15.55a1.13,1.13,0,0,0,1.13,1.12h.8a1.12,1.12,0,0,0,1.12-1.12V260.62C160.8,260.89,160.13,261.1,159.3,261.1Z" style="fill:#2DC653"></path><path d="M160.83,260.61c0,.27-.69.49-1.53.49s-1.53-.22-1.53-.49.68-.48,1.53-.48S160.83,260.34,160.83,260.61Z" style="fill:#263238"></path><path d="M160.83,260.61c0,.27-.69.49-1.53.49s-1.53-.22-1.53-.49.68-.48,1.53-.48S160.83,260.34,160.83,260.61Z" style="fill:#2DC653"></path><g style="opacity:0.8"><path d="M157.75,248v28.2a.45.45,0,0,0,.9,0V248a.45.45,0,0,0-.9,0Z" style="fill:#fff"></path></g><path d="M173.37,244.42h-3.22a1.77,1.77,0,0,0-1.77,1.77v0a1.77,1.77,0,0,0,1,1.56v28.4a2,2,0,0,0,2,2h.8a2,2,0,0,0,2-2v-28.4a1.77,1.77,0,0,0,.95-1.56v0A1.76,1.76,0,0,0,173.37,244.42Z" style="fill:#263238"></path><path d="M173.37,244.42h-3.22a1.77,1.77,0,0,0-1.77,1.77v0a1.77,1.77,0,0,0,1,1.56v28.4a2,2,0,0,0,2,2h.8a2,2,0,0,0,2-2v-28.4a1.77,1.77,0,0,0,.95-1.56v0A1.76,1.76,0,0,0,173.37,244.42Z" style="fill:#fff;opacity:0.6000000000000001"></path><path d="M169.06,244.81a5.69,5.69,0,0,0,2.7.45,5.75,5.75,0,0,0,2.7-.45,1.75,1.75,0,0,0-1.09-.39h-3.22A1.73,1.73,0,0,0,169.06,244.81Z" style="fill:#263238"></path><path d="M171.76,255.59c-.84,0-1.51-.21-1.53-.48v21.06a1.13,1.13,0,0,0,1.13,1.12h.8a1.12,1.12,0,0,0,1.12-1.12V255.11C173.27,255.38,172.59,255.59,171.76,255.59Z" style="fill:#2DC653"></path><path d="M173.29,255.1c0,.27-.69.49-1.53.49s-1.53-.22-1.53-.49.68-.49,1.53-.49S173.29,254.83,173.29,255.1Z" style="fill:#263238"></path><path d="M173.29,255.1c0,.27-.69.49-1.53.49s-1.53-.22-1.53-.49.68-.49,1.53-.49S173.29,254.83,173.29,255.1Z" style="fill:#2DC653"></path><g style="opacity:0.8"><path d="M170.21,248v28.2a.45.45,0,0,0,.9,0V248a.45.45,0,0,0-.9,0Z" style="fill:#fff"></path></g><path d="M185.83,244.42h-3.22a1.76,1.76,0,0,0-1.76,1.77v0a1.75,1.75,0,0,0,1,1.56v28.4a2,2,0,0,0,2,2h.8a2,2,0,0,0,2-2v-28.4a1.75,1.75,0,0,0,1-1.56v0A1.76,1.76,0,0,0,185.83,244.42Z" style="fill:#263238"></path><path d="M185.83,244.42h-3.22a1.76,1.76,0,0,0-1.76,1.77v0a1.75,1.75,0,0,0,1,1.56v28.4a2,2,0,0,0,2,2h.8a2,2,0,0,0,2-2v-28.4a1.75,1.75,0,0,0,1-1.56v0A1.76,1.76,0,0,0,185.83,244.42Z" style="fill:#fff;opacity:0.6000000000000001"></path><path d="M181.52,244.81a8.33,8.33,0,0,0,5.4,0,1.75,1.75,0,0,0-1.09-.39h-3.22A1.73,1.73,0,0,0,181.52,244.81Z" style="fill:#263238"></path><path d="M184.22,261.1c-.83,0-1.51-.21-1.52-.48v15.55a1.12,1.12,0,0,0,1.12,1.12h.8a1.12,1.12,0,0,0,1.12-1.12V260.62C185.73,260.89,185.05,261.1,184.22,261.1Z" style="fill:#2DC653"></path><path d="M185.75,260.61c0,.27-.69.49-1.53.49s-1.53-.22-1.53-.49.69-.48,1.53-.48S185.75,260.34,185.75,260.61Z" style="fill:#263238"></path><path d="M185.75,260.61c0,.27-.69.49-1.53.49s-1.53-.22-1.53-.49.69-.48,1.53-.48S185.75,260.34,185.75,260.61Z" style="fill:#2DC653"></path><g style="opacity:0.8"><path d="M182.67,248v28.2a.45.45,0,0,0,.9,0V248a.45.45,0,0,0-.9,0Z" style="fill:#fff"></path></g><path d="M193.86,252a1,1,0,0,0,1-1v-1a1,1,0,0,0-1-1h-56a1,1,0,0,0-1,1v1a1,1,0,0,0,1,1h1.58v28h-1.58a1,1,0,0,0-1,1v1a1,1,0,0,0,1,1h56a1,1,0,0,0,1-1v-1a1,1,0,0,0-1-1h-1.58V252Zm-4.12,28h-47.8V252h47.8Z" style="fill:#263238"></path><path d="M193.86,252a1,1,0,0,0,1-1v-1a1,1,0,0,0-1-1h-56a1,1,0,0,0-1,1v1a1,1,0,0,0,1,1h1.58v28h-1.58a1,1,0,0,0-1,1v1a1,1,0,0,0,1,1h56a1,1,0,0,0,1-1v-1a1,1,0,0,0-1-1h-1.58V252Zm-4.12,28h-47.8V252h47.8Z" style="fill:#fff;opacity:0.4"></path><path d="M338.72,279.65l-5.82-16H316l1.28,15a1.5,1.5,0,0,1-1.47,1.58h-7.38a.81.81,0,0,0-.78.71l-.07.8a.65.65,0,0,0,.66.72H338a.87.87,0,0,0,.84-.78l.07-.83A2.66,2.66,0,0,0,338.72,279.65Zm-7.08.55h-8.09a1,1,0,0,1-1-.9l-.6-7.05a1.2,1.2,0,0,1,1.18-1.27h6.12a1,1,0,0,1,.93.64l2.57,7.05A1.18,1.18,0,0,1,331.64,280.2Z" style="fill:#263238"></path><path d="M338.72,279.65l-5.82-16H316l1.28,15a1.5,1.5,0,0,1-1.47,1.58h-7.38a.81.81,0,0,0-.78.71l-.07.8a.65.65,0,0,0,.66.72H338a.87.87,0,0,0,.84-.78l.07-.83A2.66,2.66,0,0,0,338.72,279.65Zm-7.08.55h-8.09a1,1,0,0,1-1-.9l-.6-7.05a1.2,1.2,0,0,1,1.18-1.27h6.12a1,1,0,0,1,.93.64l2.57,7.05A1.18,1.18,0,0,1,331.64,280.2Z" style="fill:#fff;opacity:0.2"></path><path d="M324.09,271h-.95a1.2,1.2,0,0,0-1.18,1.27l.6,7.05a1,1,0,0,0,1,.9h.95a1,1,0,0,1-1-.9l-.61-7.05A1.2,1.2,0,0,1,324.09,271Z" style="fill:#263238"></path><path d="M339.67,279.65l-5.82-16h-1l5.82,16a2.66,2.66,0,0,1,.15,1.19l-.07.83a.87.87,0,0,1-.84.78h1a.86.86,0,0,0,.84-.78l.08-.83A2.82,2.82,0,0,0,339.67,279.65Z" style="fill:#263238"></path><g style="opacity:0.2"><path d="M324.09,271h-.95a1.2,1.2,0,0,0-1.18,1.27l.6,7.05a1,1,0,0,0,1,.9h.95a1,1,0,0,1-1-.9l-.61-7.05A1.2,1.2,0,0,1,324.09,271Z"></path><path d="M339.67,279.65l-5.82-16h-1l5.82,16a2.66,2.66,0,0,1,.15,1.19l-.07.83a.87.87,0,0,1-.84.78h1a.86.86,0,0,0,.84-.78l.08-.83A2.82,2.82,0,0,0,339.67,279.65Z"></path></g><polygon points="332.9 263.68 316.04 263.68 316.37 267.5 334.29 267.5 332.9 263.68" style="opacity:0.2"></polygon><path d="M362,265.36H290.07a2.37,2.37,0,0,1-2.4-2.63l4.55-52a2.92,2.92,0,0,1,2.86-2.63H367a2.37,2.37,0,0,1,2.4,2.63l-4.55,52A2.92,2.92,0,0,1,362,265.36Z" style="fill:#263238"></path><path d="M362,265.36H290.07a2.37,2.37,0,0,1-2.4-2.63l4.55-52a2.92,2.92,0,0,1,2.86-2.63H367a2.37,2.37,0,0,1,2.4,2.63l-4.55,52A2.92,2.92,0,0,1,362,265.36Z" style="fill:#fff;opacity:0.5"></path><path d="M288.16,257.11l-.49,5.62a2.37,2.37,0,0,0,2.4,2.63H362a2.92,2.92,0,0,0,2.85-2.63l.5-5.62Z" style="fill:#263238"></path><path d="M288.16,257.11l-.49,5.62a2.37,2.37,0,0,0,2.4,2.63H362a2.92,2.92,0,0,0,2.85-2.63l.5-5.62" style="fill:#fff;opacity:0.7000000000000001"></path><path d="M362.81,255.52H291a1.29,1.29,0,0,1-1.3-1.43l3.75-43a1.59,1.59,0,0,1,1.55-1.43h71.84a1.29,1.29,0,0,1,1.3,1.43l-3.76,43A1.59,1.59,0,0,1,362.81,255.52Z" style="fill:#263238"></path><path d="M362.81,255.52H291a1.29,1.29,0,0,1-1.3-1.43l3.75-43a1.59,1.59,0,0,1,1.55-1.43h71.84a1.29,1.29,0,0,1,1.3,1.43l-3.76,43A1.59,1.59,0,0,1,362.81,255.52Z" style="fill:#fff;opacity:0.4"></path><path d="M368.59,208.12H367a2.37,2.37,0,0,1,2.4,2.63l-4.55,52a2.92,2.92,0,0,1-2.85,2.63h1.59a2.93,2.93,0,0,0,2.86-2.63l4.54-52A2.37,2.37,0,0,0,368.59,208.12Z" style="fill:#263238"></path><path d="M368.59,208.12H367a2.37,2.37,0,0,1,2.4,2.63l-4.55,52a2.92,2.92,0,0,1-2.85,2.63h1.59a2.93,2.93,0,0,0,2.86-2.63l4.54-52A2.37,2.37,0,0,0,368.59,208.12Z" style="fill:#fff;opacity:0.2"></path><g style="opacity:0.30000000000000004"><polygon points="338.51 209.71 335.75 209.71 326.01 255.52 328.78 255.52 338.51 209.71" style="fill:#fff"></polygon><polygon points="310.41 255.52 320.14 209.71 309.76 209.71 300.03 255.52 310.41 255.52" style="fill:#fff"></polygon></g><path d="M303,207.15h16.75a.13.13,0,0,0,0-.25H303a.13.13,0,0,0,0,.25Z" style="fill:#263238"></path><path d="M322.12,207.15h3c.15,0,.16-.25,0-.25h-3a.13.13,0,0,0,0,.25Z" style="fill:#263238"></path></g><g id="freepik--Character--inject-3"><path d="M284.26,418.38c6.67-.54,9.21-.85,13-1.28,3.22-.38,3.94,0,6.5-.28,2.15-.23,2.35-2.32,2-4.68-.16-1.18-.68-4.07-.88-6l-8.13.16c-1.73,2.78-9.54,7.35-13.35,8.21C279.73,415.25,281.6,418.59,284.26,418.38Z" style="fill:#263238"></path><path d="M289.73,258l-19.89,2.11s1.19,69.14,4.23,76.31,21,71.15,21,71.15l9.7-1.37s-4.94-71.53-13.08-80.76l4-41.79S303,264.05,289.73,258Z" style="fill:#2DC653"></path><path d="M285.35,334.57c1.43-.05,16.79,42.22,16.79,42.22s-3.43-38.56-6.45-42.88S285.35,334.57,285.35,334.57Z" style="opacity:0.1"></path><path d="M290,253.8s19.31.82,20.29.52,10.75,8,8.78,22.14-14.87,52.19-14.87,52.19,9.74,9.88,14.57,22.57l10.15,44L322,399.89l-30.95-57.08a26.69,26.69,0,0,1-5.44-17.88Z" style="fill:#2DC653"></path><path d="M290,253.8s19.31.82,20.29.52,10.75,8,8.78,22.14-14.87,52.19-14.87,52.19,9.74,9.88,14.57,22.57l10.15,44L322,399.89l-30.95-57.08a26.69,26.69,0,0,1-5.44-17.88Z" style="fill:#fff;opacity:0.1"></path><path d="M318.62,416.9c5.18-4.23,7.1-5.93,10-8.42,2.43-2.14,3.22-2.26,5.18-3.93,1.64-1.41.62-3.24-1-5-.81-.88-2.88-3-4.13-4.43L322,399.89c.16,3.27-3.67,11.47-6.32,14.34C313.12,416.9,316.55,418.58,318.62,416.9Z" style="fill:#263238"></path><path d="M256,146.3h-3.63a2,2,0,0,0-2,2v0a2,2,0,0,0,1.07,1.75v11.18a2.28,2.28,0,0,0,2.28,2.28h.89a2.28,2.28,0,0,0,2.28-2.28V150.06a2,2,0,0,0,1.07-1.75v0A2,2,0,0,0,256,146.3Z" style="fill:#2DC653"></path><path d="M256,146.3h-3.63a2,2,0,0,0-2,2v0a2,2,0,0,0,1.07,1.75v11.18a2.28,2.28,0,0,0,2.28,2.28h.89a2.28,2.28,0,0,0,2.28-2.28V150.06a2,2,0,0,0,1.07-1.75v0A2,2,0,0,0,256,146.3Z" style="fill:#fff;opacity:0.6000000000000001"></path><path d="M251.1,146.74a9.29,9.29,0,0,0,6.07,0,2,2,0,0,0-1.22-.44h-3.63A1.94,1.94,0,0,0,251.1,146.74Z" style="fill:#2DC653"></path><path d="M254.13,153.91c-.93,0-1.69-.24-1.71-.54v7.87a1.27,1.27,0,0,0,1.27,1.27h.89a1.27,1.27,0,0,0,1.27-1.27v-7.87C255.83,153.67,255.07,153.91,254.13,153.91Z" style="fill:#2DC653"></path><ellipse cx="254.13" cy="153.36" rx="1.72" ry="0.55" style="fill:#2DC653"></ellipse><ellipse cx="254.13" cy="153.36" rx="1.72" ry="0.55" style="opacity:0.30000000000000004"></ellipse><g style="opacity:0.8"><path d="M252.4,150.3v10.94a.51.51,0,0,0,1,0V150.3a.51.51,0,0,0-1,0Z" style="fill:#fff"></path></g><path d="M259.41,145.88l-1.59,4.44a2.64,2.64,0,0,1-2.35,1.74l-5.6.26-1.36,7.45-7.76.35,2.35-9.07a20.46,20.46,0,0,1,2.94-6.12v0l1.48-2.28a2.65,2.65,0,0,1,2.63-1.18l2.22.35a2.69,2.69,0,0,0,1,0l2.58-.56a2.64,2.64,0,0,1,3,1.68l.45,1.19A2.65,2.65,0,0,1,259.41,145.88Z" style="fill:#2DC653"></path><path d="M278.92,181.12a4.59,4.59,0,0,0-4.16-4.38c-24.6-1.84-23.68-10.8-23.68-10.8a54,54,0,0,1-.4-5.69,2.24,2.24,0,0,0-2.23-2.18l-6.92,0a2.23,2.23,0,0,0-2.2,1.72c-.94,4-1.37,12.7,3.73,18.55,5.45,6.24,29.77,13.16,33.58,10.82C278.82,187.76,279.09,184.05,278.92,181.12Z" style="fill:#2DC653"></path><g style="opacity:0.7000000000000001"><path d="M278.92,181.12a4.59,4.59,0,0,0-4.16-4.38c-24.6-1.84-23.68-10.8-23.68-10.8a54,54,0,0,1-.4-5.69,2.24,2.24,0,0,0-2.23-2.18l-6.92,0a2.23,2.23,0,0,0-2.2,1.72c-.94,4-1.37,12.7,3.73,18.55,5.45,6.24,29.77,13.16,33.58,10.82C278.82,187.76,279.09,184.05,278.92,181.12Z" style="fill:#fff"></path></g><path d="M251.1,183.06l21,3.15v3.36S257.93,187.85,251.1,183.06Z" style="opacity:0.2"></path><g id="freepik--freepik--character-1--inject-4--inject-3"><path d="M288.87,191c1.33.47,16.49-12.49,13.94-13.41-5.06-.75-4.27-5.53-3.91-8a18.94,18.94,0,0,1,1.29-5.13l-10.25,2.49a30,30,0,0,1,.65,4.33,15.09,15.09,0,0,1,0,2.23c.05,1.41-1.29,3.49-4.45,3.21C284,177.18,287.36,191.26,288.87,191Z" style="fill:#ffc3bd"></path><path d="M263.51,291.83c29.71,10.91,58.73-5.75,58.73-5.75.31-16-5.55-50.58-5.55-50.58-.1-1.74-.19-3.45-.28-5.17-.05-1-.1-1.91-.06-2.86-.1-12.88,1.44-31.36,4.52-43.86A20.07,20.07,0,0,0,307.29,178l-1.79-2L292,182.88l-6-8.31c-.65-1.32-3.4,1.48-3.4,1.48l-10.38.57c-6.54,12.4,0,38.38,0,38.38-.06.8-.12,1.61-.19,2.44C269.7,246.54,263.51,291.83,263.51,291.83Z" style="fill:#2DC653"></path><path d="M263.51,291.83c29.71,10.91,58.73-5.75,58.73-5.75.31-16-5.55-50.58-5.55-50.58-.1-1.74-.19-3.45-.28-5.17-.05-1-.1-1.91-.06-2.86-.1-12.88,1.44-31.36,4.52-43.86A20.07,20.07,0,0,0,307.29,178l-1.79-2L292,182.88l-6-8.31c-.65-1.32-3.4,1.48-3.4,1.48l-10.38.57c-6.54,12.4,0,38.38,0,38.38-.06.8-.12,1.61-.19,2.44C269.7,246.54,263.51,291.83,263.51,291.83Z" style="fill:#fff;opacity:0.7000000000000001"></path><path d="M290.59,171.27a15.09,15.09,0,0,1,0,2.23,11.76,11.76,0,0,0,8.32-3.92,18.94,18.94,0,0,1,1.29-5.13l-10.25,2.49A30,30,0,0,1,290.59,171.27Z" style="opacity:0.2"></path><path d="M309.19,198.26l-10.58-.77a.73.73,0,0,1-.71-.75.49.49,0,0,1,0-.12l.92-5a1,1,0,0,1,1-.74l10.57.77a.72.72,0,0,1,.71.73.49.49,0,0,1,0,.12l-.92,5A1,1,0,0,1,309.19,198.26Z" style="fill:#fff"></path><path d="M295.8,139.76s-12.21-1.19-14.08,7.92A16.81,16.81,0,0,0,286,163.15Z" style="fill:#263238"></path><path d="M293.66,141.78c-8.35,0-11,4.46-11.67,13.07-.77,10.75,1.61,18.4,12.05,16.11C308.24,167.87,307.54,141.8,293.66,141.78Z" style="fill:#ffc3bd"></path><path d="M287.19,154a17.68,17.68,0,0,1-3,3,2.31,2.31,0,0,0,2,1.28Z" style="fill:#d4827d"></path><path d="M296.76,150.66a.3.3,0,0,0,.18-.06.32.32,0,0,0,.08-.46,4.7,4.7,0,0,0-3.61-2,.3.3,0,0,0-.34.32.32.32,0,0,0,.31.34,4,4,0,0,1,3.11,1.72A.32.32,0,0,0,296.76,150.66Z" style="fill:#263238"></path><path d="M284.08,147.54a.32.32,0,0,0,.16,0,3.55,3.55,0,0,1,3.1-.11.32.32,0,0,0,.27-.59,4.21,4.21,0,0,0-3.68.12.34.34,0,0,0-.14.45A.34.34,0,0,0,284.08,147.54Z" style="fill:#263238"></path><path d="M302.79,155.88s-3.91-6.87-3.31-12.16c0,0-16.55-6.79-17.38,10,0,0-1.6-14.88,12.76-15.25,17.77-.45,14.27,20.7,6.86,27C301.76,165.44,305.2,160.18,302.79,155.88Z" style="fill:#263238"></path><path d="M281.21,157c1.38-2.15,10.42-.89,18.86.1,0,.11,0,.22,0,.33,2-3,4.26-3.42,5.92-1.1-2.3-2-4.19-.94-5.8,1.67a23.73,23.73,0,0,1,.42,7.79c2.31-1.42,3.91-4.51,5.53-7.77-1.53,3.81-3.15,7.43-5.68,8.8,0,.25-.08.51-.13.76-4.32,4.1-11.73,5.19-15.75,2C281.77,167.06,280.93,162.57,281.21,157Z" style="fill:#2DC653"></path><path d="M281.21,157c1.38-2.15,10.42-.89,18.86.1,0,.11,0,.22,0,.33,2-3,4.26-3.42,5.92-1.1-2.3-2-4.19-.94-5.8,1.67a23.73,23.73,0,0,1,.42,7.79c2.31-1.42,3.91-4.51,5.53-7.77-1.53,3.81-3.15,7.43-5.68,8.8,0,.25-.08.51-.13.76-4.32,4.1-11.73,5.19-15.75,2C281.77,167.06,280.93,162.57,281.21,157Z" style="fill:#fff;opacity:0.6000000000000001;isolation:isolate"></path><path d="M291.71,153.39c-.08.68.12,1.3.57,1.38s.92-.38,1.05-1.05-.12-1.3-.57-1.38S291.84,152.72,291.71,153.39Z" style="fill:#263238"></path><path d="M292.94,152.4l-1.35-.85S292.07,152.94,292.94,152.4Z" style="fill:#263238"></path><path d="M284.15,152.4c-.08.68.12,1.29.57,1.38s.92-.38,1.06-1.07-.13-1.28-.58-1.37S284.28,151.69,284.15,152.4Z" style="fill:#263238"></path><path d="M285.38,151.41l-1.35-.87S284.52,151.92,285.38,151.41Z" style="fill:#263238"></path><path d="M307.43,158.32a6.31,6.31,0,0,1-3.17,3.75c-2,1-3.43-.69-3.23-2.81.19-1.89,1.46-4.7,3.64-4.83a2.87,2.87,0,0,1,2.95,2.79A2.74,2.74,0,0,1,307.43,158.32Z" style="fill:#ffc3bd"></path><path d="M304.49,159.49c1.26-5.7-3-14.18-12-14.78-11.48-1.82-10.91,8.66-10.91,8.66s-2.32-8.24,5.71-14.47c0,0,.28-5.35,14.49-3.8,7.76.85,10,9.14,10.28,13.66.55,7.47-5.92,14-5.92,14,.46,1.71-3.21,1.91-3.21,1.91C303.9,163.29,304.09,161.11,304.49,159.49Z" style="fill:#fff;opacity:0.8"></path></g><path d="M320.7,183.2s12.46,29,9.47,42-24.44-1.51-24.44-1.51l-.7-7.35,11.65.25-4.07-18.8C313.15,192.18,318.62,185.3,320.7,183.2Z" style="fill:#2DC653"></path><path d="M320.7,183.2s12.46,29,9.47,42-24.44-1.51-24.44-1.51l-.7-7.35,11.65.25-4.07-18.8C313.15,192.18,318.62,185.3,320.7,183.2Z" style="fill:#fff;opacity:0.7000000000000001"></path><rect x="284.01" y="209.02" width="4.1" height="10.15" transform="translate(572.11 428.19) rotate(180)" style="fill:#ebebeb"></rect><path d="M283.56,209.59h5a.84.84,0,0,0,.85-.84h0a.85.85,0,0,0-.85-.84h-5a.85.85,0,0,0-.84.84h0A.84.84,0,0,0,283.56,209.59Z" style="fill:#ebebeb"></path><path d="M294.27,227.83l-8.21-12.2-8.21,12.2a1.71,1.71,0,0,0,1.42,2.67h13.57A1.72,1.72,0,0,0,294.27,227.83Z" style="fill:#ebebeb"></path><path d="M292.34,227.26l-6.28-8.79-6.28,8.79a1.3,1.3,0,0,0,1.08,2h10.39A1.31,1.31,0,0,0,292.34,227.26Z" style="fill:#2DC653"></path><g style="opacity:0.2"><path d="M284.93,222.86c-1.18,1.45-1.87,2.46-3.16,3.91-.26.29-.71.55-1,.33a.62.62,0,0,1-.23-.62,1.41,1.41,0,0,1,.28-.64c1.66-2.25,2.58-3.46,4-5.36a1,1,0,0,0,.19-.58l0-4.37c0-.4.45-.92.79-.83a.87.87,0,0,1,.6.77c0,1.28,0,4.1,0,5a.9.9,0,0,1-.17.52Z" style="fill:#fff"></path></g><path d="M280.86,211.08c.91-1,7.19-.79,8.66-.12,1.11.67,4.57,2.82,4.57,2.82L311,215.69l.1,13.16-18.31-8.78c-3.18.79-8.9.09-10.72-.87S279.94,212.05,280.86,211.08Z" style="fill:#2DC653"></path><path d="M316.68,216.59a8.08,8.08,0,0,1,2.95,1,61,61,0,0,1-5.57-12.46C314.83,208.77,315.9,212.92,316.68,216.59Z" style="opacity:0.2"></path></g></svg>